control_change channel=0 control=74 value=73 time=0\ncontrol_change channel=0 control=74 value=74 time=0\ncontrol_change channel=0 control=74 value=75 time=0\ncontrol_change channel=0 control=74 value=76 time=0\ncontrol_change channel=0 control=74 value=77 time=0\ncontrol_change channel=0 control=74 value=78 time=0\ncontrol_change channel=0 control=74 value=79 time=0\ncontrol_change channel=0 control=74 value=80 time=0\ncontrol_change channel=0 control=74 value=81 time=0\ncontrol_change channel=0 control=74 value=82 time=0\ncontrol_change channel=0 control=74 value=83 time=0\ncontrol_change channel=0 control=74 value=85 time=0\ncontrol_change channel=0 control=74 value=86 time=0\ncontrol_change channel=0 control=74 value=87 time=0\ncontrol_change channel=0 control=74 value=89 time=0\ncontrol_change channel=0 control=74 value=90 time=0\ncontrol_change channel=0 control=74 value=91 time=0\ncontrol_change channel=0 control=74 value=93 time=0\ncontrol_change channel=0 control=74 value=94 time=0\ncontrol_change channel=0 control=74 value=95 time=0\ncontrol_change channel=0 control=74 value=96 time=0\ncontrol_change channel=0 control=74 value=97 time=0\ncontrol_change channel=0 control=74 value=98 time=0\ncontrol_change channel=0 control=74 value=99 time=0\ncontrol_change channel=0 control=74 value=100 time=0\ncontrol_change channel=0 control=74 value=101 time=0\ncontrol_change channel=0 control=74 value=102 time=0\ncontrol_change channel=0 control=74 value=103 time=0\ncontrol_change channel=0 control=74 value=104 time=0\ncontrol_change channel=0 control=74 value=103 time=0\ncontrol_change channel=0 control=74 value=102 time=0\ncontrol_change channel=0 control=74 value=101 time=0\ncontrol_change channel=0 control=74 value=100 time=0\ncontrol_change channel=0 control=74 value=99 time=0\ncontrol_change channel=0 control=74 value=98 time=0\ncontrol_change channel=0 control=74 value=97 time=0\ncontrol_change channel=0 control=74 value=95 time=0\ncontrol_change channel=0 control=74 value=94 time=0\ncontrol_change channel=0 control=74 value=93 time=0\ncontrol_change channel=0 control=74 value=91 time=0\ncontrol_change channel=0 control=74 value=90 time=0\ncontrol_change channel=0 control=74 value=89 time=0\ncontrol_change channel=0 control=74 value=87 time=0\ncontrol_change channel=0 control=74 value=86 time=0\ncontrol_change channel=0 control=74 value=85 time=0\ncontrol_change channel=0 control=74 value=84 time=0\ncontrol_change channel=0 control=74 value=82 time=0\ncontrol_change channel=0 control=74 value=81 time=0\ncontrol_change channel=0 control=74 value=80 time=0\ncontrol_change channel=0 control=74 value=78 time=0\ncontrol_change channel=0 control=74 value=77 time=0\ncontrol_change channel=0 control=74 value=75 time=0\ncontrol_change channel=0 control=74 value=74 time=0\ncontrol_change channel=0 control=74 value=73 time=0\ncontrol_change channel=0 control=74 value=71 time=0\ncontrol_change channel=0 control=74 value=70 time=0\ncontrol_change channel=0 control=74 value=68 time=0\ncontrol_change channel=0 control=74 value=67 time=0\ncontrol_change channel=0 control=74 value=66 time=0\ncontrol_change channel=0 control=74 value=65 time=0\ncontrol_change channel=0 control=74 value=64 time=0\ncontrol_change channel=0 control=74 value=63 time=0\ncontrol_change channel=0 control=74 value=62 time=0\ncontrol_change channel=0 control=74 value=61 time=0\ncontrol_change channel=0 control=74 value=60 time=0\ncontrol_change channel=0 control=74 value=59 time=0\ncontrol_change channel=0 control=74 value=58 time=0\ncontrol_change channel=0 control=74 value=59 time=0\ncontrol_change channel=0 control=74 value=60 time=0\ncontrol_change channel=0 control=74 value=61 time=0\ncontrol_change channel=0 control=74 value=62 time=0\ncontrol_change channel=0 control=74 value=63 time=0\ncontrol_change channel=0 control=74 value=64 time=0\ncontrol_change channel=0 control=74 value=65 time=0\ncontrol_change channel=0 control=74 value=66 time=0\ncontrol_change channel=0 control=74 value=67 time=0\ncontrol_change channel=0 control=74 value=68 time=0\ncontrol_change channel=0 control=74 value=69 time=0\ncontrol_change channel=0 control=74 value=70 time=0\ncontrol_change channel=0 control=74 value=72 time=0\ncontrol_change channel=0 control=74 value=73 time=0\ncontrol_change channel=0 control=74 value=74 time=0\ncontrol_change channel=0 control=74 value=75 time=0\ncontrol_change channel=0 control=74 value=76 time=0\ncontrol_change channel=0 control=74 value=77 time=0\ncontrol_change channel=0 control=74 value=78 time=0\ncontrol_change channel=0 control=74 value=79 time=0\ncontrol_change channel=0 control=74 value=80 time=0\ncontrol_change channel=0 control=74 value=81 time=0\ncontrol_change channel=0 control=74 value=82 time=0\ncontrol_change channel=0 control=74 value=84 time=0\ncontrol_change channel=0 control=74 value=85 time=0\ncontrol_change channel=0 control=74 value=86 time=0\ncontrol_change channel=0 control=74 value=87 time=0\ncontrol_change channel=0 control=74 value=88 time=0\ncontrol_change channel=0 control=74 value=90 time=0\ncontrol_change channel=0 control=74 value=91 time=0\ncontrol_change channel=0 control=74 value=92 time=0\ncontrol_change channel=0 control=74 value=93 time=0\ncontrol_change channel=0 control=74 value=94 time=0\ncontrol_change channel=0 control=74 value=95 time=0\ncontrol_change channel=0 control=74 value=94 time=0\ncontrol_change channel=0 control=74 value=93 time=0\ncontrol_change channel=0 control=74 value=92 time=0\ncontrol_change channel=0 control=74 value=91 time=0\ncontrol_change channel=0 control=74 value=90 time=0\ncontrol_change channel=0 control=74 value=89 time=0\ncontrol_change channel=0 control=74 value=88 time=0\ncontrol_change channel=0 control=74 value=87 time=0\ncontrol_change channel=0 control=74 value=85 time=0\ncontrol_change channel=0 control=74 value=84 time=0\ncontrol_change channel=0 control=74 value=83 time=0\ncontrol_change channel=0 control=74 value=82 time=0\ncontrol_change channel=0 control=74 value=80 time=0\ncontrol_change channel=0 control=74 value=79 time=0\ncontrol_change channel=0 control=74 value=78 time=0\ncontrol_change channel=0 control=74 value=76 time=0\ncontrol_change channel=0 control=74 value=75 time=0\ncontrol_change channel=0 control=74 value=74 time=0\ncontrol_change channel=0 control=74 value=73 time=0\ncontrol_change channel=0 control=74 value=72 time=0\ncontrol_change channel=0 control=74 value=71 time=0\ncontrol_change channel=0 control=74 value=70 time=0\ncontrol_change channel=0 control=74 value=71 time=0\ncontrol_change channel=0 control=74 value=72 time=0\ncontrol_change channel=0 control=74 value=73 time=0\ncontrol_change channel=0 control=74 value=74 time=0\ncontrol_change channel=0 control=74 value=75 time=0\ncontrol_change channel=0 control=74 value=77 time=0\ncontrol_change channel=0 control=74 value=78 time=0\ncontrol_change channel=0 control=74 value=80 time=0\ncontrol_change channel=0 control=74 value=81 time=0\ncontrol_change channel=0 control=74 value=83 time=0\ncontrol_change channel=0 control=74 value=85 time=0\ncontrol_change channel=0 control=74 value=87 time=0\ncontrol_change channel=0 control=74 value=89 time=0\ncontrol_change channel=0 control=74 value=92 time=0\ncontrol_change channel=0 control=74 value=94 time=0\ncontrol_change channel=0 control=74 value=96 time=0\ncontrol_change channel=0 control=74 value=98 time=0\ncontrol_change channel=0 control=74 value=100 time=0\ncontrol_change channel=0 control=74 value=102 time=0\ncontrol_change channel=0 control=74 value=104 time=0\ncontrol_change channel=0 control=74 value=106 time=0\ncontrol_change channel=0 control=74 value=108 time=0\ncontrol_change channel=0 control=74 value=110 time=0\ncontrol_change channel=0 control=74 value=112 time=0\ncontrol_change channel=0 control=74 value=114 time=0\ncontrol_change channel=0 control=74 value=116 time=0\ncontrol_change channel=0 control=74 value=118 time=0\ncontrol_change channel=0 control=74 value=119 time=0\ncontrol_change channel=0 control=74 value=120 time=0\ncontrol_change channel=0 control=74 value=121 time=0\ncontrol_change channel=0 control=74 value=122 time=0\ncontrol_change channel=0 control=74 value=123 time=0\ncontrol_change channel=0 control=74 value=124 time=0\ncontrol_change channel=0 control=74 value=123 time=0\ncontrol_change channel=0 control=74 value=121 time=0\ncontrol_change channel=0 control=74 value=119 time=0\ncontrol_change channel=0 control=74 value=116 time=0\ncontrol_change channel=0 control=74 value=113 time=0\ncontrol_change channel=0 control=74 value=109 time=0\ncontrol_change channel=0 control=74 value=106 time=0\ncontrol_change channel=0 control=74 value=102 time=0\ncontrol_change channel=0 control=74 value=97 time=0\ncontrol_change channel=0 control=74 value=93 time=0\ncontrol_change channel=0 control=74 value=89 time=0\ncontrol_change channel=0 control=74 value=85 time=0\ncontrol_change channel=0 control=74 value=81 time=0\ncontrol_change channel=0 control=74 value=78 time=0\ncontrol_change channel=0 control=74 value=75 time=0\ncontrol_change channel=0 control=74 value=72 time=0\ncontrol_change channel=0 control=74 value=69 time=0\ncontrol_change channel=0 control=74 value=67 time=0\ncontrol_change channel=0 control=74 value=65 time=0\ncontrol_change channel=0 control=74 value=64 time=0\ncontrol_change channel=0 control=74 value=62 time=0\ncontrol_change channel=0 control=74 value=61 time=0\ncontrol_change channel=0 control=74 value=59 time=0\ncontrol_change channel=0 control=74 value=58 time=0\ncontrol_change channel=0 control=74 value=57 time=0\ncontrol_change channel=0 control=74 value=56 time=0\ncontrol_change channel=0 control=74 value=57 time=0\ncontrol_change channel=0 control=74 value=58 time=0\ncontrol_change channel=0 control=74 value=60 time=0\ncontrol_change channel=0 control=74 value=61 time=0\ncontrol_change channel=0 control=74 value=63 time=0\ncontrol_change channel=0 control=74 value=65 time=0\ncontrol_change channel=0 control=74 value=67 time=0\ncontrol_change channel=0 control=74 value=70 time=0\ncontrol_change channel=0 control=74 value=72 time=0\ncontrol_change channel=0 control=74 value=75 time=0\ncontrol_change channel=0 control=74 value=78 time=0\ncontrol_change channel=0 control=74 value=81 time=0\ncontrol_change channel=0 control=74 value=84 time=0\ncontrol_change channel=0 control=74 value=88 time=0\ncontrol_change channel=0 control=74 value=91 time=0\ncontrol_change channel=0 control=74 value=94 time=0\ncontrol_change channel=0 control=74 value=97 time=0\ncontrol_change channel=0 control=74 value=100 time=0\ncontrol_change channel=0 control=74 value=103 time=0\ncontrol_change channel=0 control=74 value=105 time=0\ncontrol_change channel=0 control=74 value=108 time=0\ncontrol_change channel=0 control=74 value=110 time=0\ncontrol_change channel=0 control=74 value=113 time=0\ncontrol_change channel=0 control=74 value=115 time=0\ncontrol_change channel=0 control=74 value=117 time=0\ncontrol_change channel=0 control=74 value=119 time=0\ncontrol_change channel=0 control=74 value=121 time=0\ncontrol_change channel=0 control=74 value=122 time=0\ncontrol_change channel=0 control=74 value=123 time=0\ncontrol_change channel=0 control=74 value=124 time=0\ncontrol_change channel=0 control=74 value=123 time=0\ncontrol_change channel=0 control=74 value=122 time=0\ncontrol_change channel=0 control=74 value=120 time=0\ncontrol_change channel=0 control=74 value=118 time=0\ncontrol_change channel=0 control=74 value=116 time=0\ncontrol_change channel=0 control=74 value=113 time=0\ncontrol_change channel=0 control=74 value=110 time=0\ncontrol_change channel=0 control=74 value=106 time=0\ncontrol_change channel=0 control=74 value=102 time=0\ncontrol_change channel=0 control=74 value=98 time=0\ncontrol_change channel=0 control=74 value=94 time=0\ncontrol_change channel=0 control=74 value=89 time=0\ncontrol_change channel=0 control=74 value=85 time=0\ncontrol_change channel=0 control=74 value=81 time=0\ncontrol_change channel=0 control=74 value=77 time=0\ncontrol_change channel=0 control=74 value=73 time=0\ncontrol_change channel=0 control=74 value=70 time=0\ncontrol_change channel=0 control=74 value=67 time=0\ncontrol_change channel=0 control=74 value=65 time=0\ncontrol_change channel=0 control=74 value=63 time=0\ncontrol_change channel=0 control=74 value=61 time=0\ncontrol_change channel=0 control=74 value=60 time=0\ncontrol_change channel=0 control=74 value=58 time=0\ncontrol_change channel=0 control=74 value=57 time=0\ncontrol_change channel=0 control=74 value=56 time=0\ncontrol_change channel=0 control=74 value=55 time=0\ncontrol_change channel=0 control=74 value=56 time=0\ncontrol_change channel=0 control=74 value=57 time=0\ncontrol_change channel=0 control=74 value=58 time=0\ncontrol_change channel=0 control=74 value=59 time=0\ncontrol_change channel=0 control=74 value=61 time=0\ncontrol_change channel=0 control=74 value=62 time=0\ncontrol_change channel=0 control=74 value=64 time=0\ncontrol_change channel=0 control=74 value=66 time=0\ncontrol_change channel=0 control=74 value=69 time=0\ncontrol_change channel=0 control=74 value=72 time=0\ncontrol_change channel=0 control=74 value=75 time=0\ncontrol_change channel=0 control=74 value=78 time=0\ncontrol_change channel=0 control=74 value=82 time=0\ncontrol_change channel=0 control=74 value=85 time=0\ncontrol_change channel=0 control=74 value=89 time=0\ncontrol_change channel=0 control=74 value=93 time=0\ncontrol_change channel=0 control=74 value=96 time=0\ncontrol_change channel=0 control=74 value=100 time=0\ncontrol_change channel=0 control=74 value=103 time=0\ncontrol_change channel=0 control=74 value=107 time=0\ncontrol_change channel=0 control=74 value=110 time=0\ncontrol_change channel=0 control=74 value=113 time=0\ncontrol_change channel=0 control=74 value=115 time=0\ncontrol_change channel=0 control=74 value=117 time=0\ncontrol_change channel=0 control=74 value=119 time=0\ncontrol_change channel=0 control=74 value=120 time=0\ncontrol_change channel=0 control=74 value=122 time=0\ncontrol_change channel=0 control=74 value=123 time=0\ncontrol_change channel=0 control=74 value=124 time=0\ncontrol_change channel=0 control=74 value=123 time=0\ncontrol_change channel=0 control=74 value=122 time=0\ncontrol_change channel=0 control=74 value=121 time=0\ncontrol_change channel=0 control=74 value=119 time=0\ncontrol_change channel=0 control=74 value=117 time=0\ncontrol_change channel=0 control=74 value=114 time=0\ncontrol_change channel=0 control=74 value=111 time=0\ncontrol_change channel=0 control=74 value=108 time=0\ncontrol_change channel=0 control=74 value=104 time=0\ncontrol_change channel=0 control=74 value=101 time=0\ncontrol_change channel=0 control=74 value=97 time=0\ncontrol_change channel=0 control=74 value=93 time=0\ncontrol_change channel=0 control=74 value=89 time=0\ncontrol_change channel=0 control=74 value=85 time=0\ncontrol_change channel=0 control=74 value=81 time=0\ncontrol_change channel=0 control=74 value=78 time=0\ncontrol_change channel=0 control=74 value=75 time=0\ncontrol_change channel=0 control=74 value=72 time=0\ncontrol_change channel=0 control=74 value=70 time=0\ncontrol_change channel=0 control=74 value=68 time=0\ncontrol_change channel=0 control=74 value=66 time=0\ncontrol_change channel=0 control=74 value=64 time=0\ncontrol_change channel=0 control=74 value=63 time=0\ncontrol_change channel=0 control=74 value=62 time=0\ncontrol_change channel=0 control=74 value=64 time=0\ncontrol_change channel=0 control=74 value=65 time=0\ncontrol_change channel=0 control=74 value=67 time=0\ncontrol_change channel=0 control=74 value=69 time=0\ncontrol_change channel=0 control=74 value=71 time=0\ncontrol_change channel=0 control=74 value=74 time=0\ncontrol_change channel=0 control=74 value=77 time=0\ncontrol_change channel=0 control=74 value=80 time=0\ncontrol_change channel=0 control=74 value=83 time=0\ncontrol_change channel=0 control=74 value=86 time=0\ncontrol_change channel=0 control=74 value=90 time=0\ncontrol_change channel=0 control=74 value=93 time=0\ncontrol_change channel=0 control=74 value=96 time=0\ncontrol_change channel=0 control=74 value=100 time=0\ncontrol_change channel=0 control=74 value=103 time=0\ncontrol_change channel=0 control=74 value=106 time=0\ncontrol_change channel=0 control=74 value=110 time=0\ncontrol_change channel=0 control=74 value=113 time=0\ncontrol_change channel=0 control=74 value=115 time=0\ncontrol_change channel=0 control=74 value=118 time=0\ncontrol_change channel=0 control=74 value=120 time=0\ncontrol_change channel=0 control=74 value=121 time=0\ncontrol_change channel=0 control=74 value=122 time=0\ncontrol_change channel=0 control=74 value=123 time=0\ncontrol_change channel=0 control=74 value=122 time=0\ncontrol_change channel=0 control=74 value=121 time=0\ncontrol_change channel=0 control=74 value=120 time=0\ncontrol_change channel=0 control=74 value=118 time=0\ncontrol_change channel=0 control=74 value=116 time=0\ncontrol_change channel=0 control=74 value=113 time=0\ncontrol_change channel=0 control=74 value=110 time=0\ncontrol_change channel=0 control=74 value=106 time=0\ncontrol_change channel=0 control=74 value=103 time=0\ncontrol_change channel=0 control=74 value=99 time=0\ncontrol_change channel=0 control=74 value=95 time=0\ncontrol_change channel=0 control=74 value=92 time=0\ncontrol_change channel=0 control=74 value=88 time=0\ncontrol_change channel=0 control=74 value=84 time=0\ncontrol_change channel=0 control=74 value=81 time=0\ncontrol_change channel=0 control=74 value=78 time=0\ncontrol_change channel=0 control=74 value=75 time=0\ncontrol_change channel=0 control=74 value=72 time=0\ncontrol_change channel=0 control=74 value=70 time=0\ncontrol_change channel=0 control=74 value=68 time=0\ncontrol_change channel=0 control=74 value=66 time=0\ncontrol_change channel=0 control=74 value=64 time=0\ncontrol_change channel=0 control=74 value=63 time=0\ncontrol_change channel=0 control=74 value=62 time=0\ncontrol_change channel=0 control=74 value=61 time=0\ncontrol_change channel=0 control=74 value=60 time=0\ncontrol_change channel=0 control=74 value=61 time=0\ncontrol_change channel=0 control=74 value=62 time=0\ncontrol_change channel=0 control=74 value=63 time=0\ncontrol_change channel=0 control=74 value=64 time=0\ncontrol_change channel=0 control=74 value=66 time=0\ncontrol_change channel=0 control=74 value=68 time=0\ncontrol_change channel=0 control=74 value=71 time=0\ncontrol_change channel=0 control=74 value=73 time=0\ncontrol_change channel=0 control=74 value=77 time=0\ncontrol_change channel=0 control=74 value=80 time=0\ncontrol_change channel=0 control=74 value=83 time=0\ncontrol_change channel=0 control=74 value=87 time=0\ncontrol_change channel=0 control=74 value=90 time=0\ncontrol_change channel=0 control=74 value=94 time=0\ncontrol_change channel=0 control=74 value=97 time=0\ncontrol_change channel=0 control=74 value=101 time=0\ncontrol_change channel=0 control=74 value=103 time=0\ncontrol_change channel=0 control=74 value=106 time=0\ncontrol_change channel=0 control=74 value=108 time=0\ncontrol_change channel=0 control=74 value=109 time=0\ncontrol_change channel=0 control=74 value=108 time=0\ncontrol_change channel=0 control=74 value=107 time=0\ncontrol_change channel=0 control=74 value=105 time=0\ncontrol_change channel=0 control=74 value=103 time=0\ncontrol_change channel=0 control=74 value=100 time=0\ncontrol_change channel=0 control=74 value=98 time=0\ncontrol_change channel=0 control=74 value=95 time=0\ncontrol_change channel=0 control=74 value=92 time=0\ncontrol_change channel=0 control=74 value=89 time=0\ncontrol_change channel=0 control=74 value=86 time=0\ncontrol_change channel=0 control=74 value=84 time=0\ncontrol_change channel=0 control=74 value=81 time=0\ncontrol_change channel=0 control=74 value=79 time=0\ncontrol_change channel=0 control=74 value=77 time=0\ncontrol_change channel=0 control=74 value=75 time=0\ncontrol_change channel=0 control=74 value=73 time=0\ncontrol_change channel=0 control=74 value=71 time=0\ncontrol_change channel=0 control=74 value=69 time=0\ncontrol_change channel=0 control=74 value=68 time=0\ncontrol_change channel=0 control=74 value=66 time=0\ncontrol_change channel=0 control=74 value=65 time=0\ncontrol_change channel=0 control=74 value=64 time=0\ncontrol_change channel=0 control=74 value=63 time=0\ncontrol_change channel=0 control=74 value=62 time=0\ncontrol_change channel=0 control=74 value=63 time=0\ncontrol_change channel=0 control=74 value=64 time=0\ncontrol_change channel=0 control=74 value=65 time=0\ncontrol_change channel=0 control=74 value=66 time=0\ncontrol_change channel=0 control=74 value=68 time=0\ncontrol_change channel=0 control=74 value=70 time=0\ncontrol_change channel=0 control=74 value=72 time=0\ncontrol_change channel=0 control=74 value=75 time=0\ncontrol_change channel=0 control=74 value=78 time=0\ncontrol_change channel=0 control=74 value=81 time=0\ncontrol_change channel=0 control=74 value=84 time=0\ncontrol_change channel=0 control=74 value=87 time=0\ncontrol_change channel=0 control=74 value=91 time=0\ncontrol_change channel=0 control=74 value=94 time=0\ncontrol_change channel=0 control=74 value=98 time=0\ncontrol_change channel=0 control=74 value=101 time=0\ncontrol_change channel=0 control=74 value=105 time=0\ncontrol_change channel=0 control=74 value=108 time=0\ncontrol_change channel=0 control=74 value=110 time=0\ncontrol_change channel=0 control=74 value=112 time=0\ncontrol_change channel=0 control=74 value=114 time=0\ncontrol_change channel=0 control=74 value=115 time=0\ncontrol_change channel=0 control=74 value=116 time=0\ncontrol_change channel=0 control=74 value=115 time=0\ncontrol_change channel=0 control=74 value=114 time=0\ncontrol_change channel=0 control=74 value=112 time=0\ncontrol_change channel=0 control=74 value=110 time=0\ncontrol_change channel=0 control=74 value=108 time=0\ncontrol_change channel=0 control=74 value=106 time=0\ncontrol_change channel=0 control=74 value=103 time=0\ncontrol_change channel=0 control=74 value=100 time=0\ncontrol_change channel=0 control=74 value=97 time=0\ncontrol_change channel=0 control=74 value=94 time=0\ncontrol_change channel=0 control=74 value=91 time=0\ncontrol_change channel=0 control=74 value=87 time=0\ncontrol_change channel=0 control=74 value=84 time=0\ncontrol_change channel=0 control=74 value=80 time=0\ncontrol_change channel=0 control=74 value=77 time=0\ncontrol_change channel=0 control=74 value=74 time=0\ncontrol_change channel=0 control=74 value=72 time=0\ncontrol_change channel=0 control=74 value=70 time=0\ncontrol_change channel=0 control=74 value=68 time=0\ncontrol_change channel=0 control=74 value=66 time=0\ncontrol_change channel=0 control=74 value=65 time=0\ncontrol_change channel=0 control=74 value=64 time=0\ncontrol_change channel=0 control=74 value=63 time=0\ncontrol_change channel=0 control=74 value=62 time=0\ncontrol_change channel=0 control=74 value=63 time=0\ncontrol_change channel=0 control=74 value=64 time=0\ncontrol_change channel=0 control=74 value=65 time=0\ncontrol_change channel=0 control=74 value=67 time=0\ncontrol_change channel=0 control=74 value=69 time=0\ncontrol_change channel=0 control=74 value=71 time=0\ncontrol_change channel=0 control=74 value=74 time=0\ncontrol_change channel=0 control=74 value=77 time=0\ncontrol_change channel=0 control=74 value=79 time=0\ncontrol_change channel=0 control=74 value=82 time=0\ncontrol_change channel=0 control=74 value=84 time=0\ncontrol_change channel=0 control=74 value=87 time=0\ncontrol_change channel=0 control=74 value=89 time=0\ncontrol_change channel=0 control=74 value=91 time=0\ncontrol_change channel=0 control=74 value=92 time=0\ncontrol_change channel=0 control=74 value=94 time=0\ncontrol_change channel=0 control=74 value=95 time=0\ncontrol_change channel=0 control=74 value=94 time=0\ncontrol_change channel=0 control=74 value=93 time=0\ncontrol_change channel=0 control=74 value=92 time=0\ncontrol_change channel=0 control=74 value=90 time=0\ncontrol_change channel=0 control=74 value=88 time=0\ncontrol_change channel=0 control=74 value=86 time=0\ncontrol_change channel=0 control=74 value=84 time=0\ncontrol_change channel=0 control=74 value=81 time=0\ncontrol_change channel=0 control=74 value=79 time=0\ncontrol_change channel=0 control=74 value=77 time=0\ncontrol_change channel=0 control=74 value=74 time=0\ncontrol_change channel=0 control=74 value=72 time=0\ncontrol_change channel=0 control=74 value=71 time=0\ncontrol_change channel=0 control=74 value=69 time=0\ncontrol_change channel=0 control=74 value=68 time=0\ncontrol_change channel=0 control=74 value=67 time=0\ncontrol_change channel=0 control=74 value=66 time=0\ncontrol_change channel=0 control=74 value=65 time=0\ncontrol_change channel=0 control=74 value=64 time=0\ncontrol_change channel=0 control=74 value=65 time=0\ncontrol_change channel=0 control=74 value=66 time=0\ncontrol_change channel=0 control=74 value=67 time=0\ncontrol_change channel=0 control=74 value=68 time=0\ncontrol_change channel=0 control=74 value=69 time=0\ncontrol_change channel=0 control=74 value=70 time=0\ncontrol_change channel=0 control=74 value=72 time=0\ncontrol_change channel=0 control=74 value=73 time=0\ncontrol_change channel=0 control=74 value=74 time=0\ncontrol_change channel=0 control=74 value=76 time=0\ncontrol_change channel=0 control=74 value=77 time=0\ncontrol_change channel=0 control=74 value=78 time=0\ncontrol_change channel=0 control=74 value=79 time=0\ncontrol_change channel=0 control=74 value=80 time=0\ncontrol_change channel=0 control=74 value=79 time=0\ncontrol_change channel=0 control=74 value=78 time=0\ncontrol_change channel=0 control=74 value=77 time=0\ncontrol_change channel=0 control=74 value=76 time=0\ncontrol_change channel=0 control=74 value=75 time=0\ncontrol_change channel=0 control=74 value=74 time=0\ncontrol_change channel=0 control=74 value=73 time=0\ncontrol_change channel=0 control=74 value=72 time=0\ncontrol_change channel=0 control=74 value=71 time=0\ncontrol_change channel=0 control=74 value=70 time=0\ncontrol_change channel=0 control=74 value=69 time=0\ncontrol_change channel=0 control=74 value=68 time=0\ncontrol_change channel=0 control=74 value=67 time=0\ncontrol_change channel=0 control=74 value=66 time=0\ncontrol_change channel=0 control=74 value=65 time=0\ncontrol_change channel=0 control=74 value=64 time=0\ncontrol_change channel=0 control=74 value=63 time=0\ncontrol_change channel=0 control=74 value=62 time=0\ncontrol_change channel=0 control=74 value=61 time=0\ncontrol_change channel=0 control=74 value=60 time=0\ncontrol_change channel=0 control=74 value=59 time=0\ncontrol_change channel=0 control=74 value=58 time=0\ncontrol_change channel=0 control=74 value=59 time=0\ncontrol_change channel=0 control=74 value=60 time=0\ncontrol_change channel=0 control=74 value=61 time=0\ncontrol_change channel=0 control=74 value=62 time=0\ncontrol_change channel=0 control=74 value=63 time=0\ncontrol_change channel=0 control=74 value=64 time=0\ncontrol_change channel=0 control=74 value=66 time=0\ncontrol_change channel=0 control=74 value=67 time=0\ncontrol_change channel=0 control=74 value=68 time=0\ncontrol_change channel=0 control=74 value=70 time=0\ncontrol_change channel=0 control=74 value=71 time=0\ncontrol_change channel=0 control=74 value=72 time=0\ncontrol_change channel=0 control=74 value=73 time=0\ncontrol_change channel=0 control=74 value=74 time=0\ncontrol_change channel=0 control=74 value=75 time=0\ncontrol_change channel=0 control=74 value=76 time=0\ncontrol_change channel=0 control=74 value=77 time=0\ncontrol_change channel=0 control=74 value=78 time=0\ncontrol_change channel=0 control=74 value=77 time=0\ncontrol_change channel=0 control=74 value=76 time=0\ncontrol_change channel=0 control=74 value=75 time=0\ncontrol_change channel=0 control=74 value=74 time=0\ncontrol_change channel=0 control=74 value=73 time=0\ncontrol_change channel=0 control=74 value=72 time=0\ncontrol_change channel=0 control=74 value=70 time=0\ncontrol_change channel=0 control=74 value=69 time=0\ncontrol_change channel=0 control=74 value=67 time=0\ncontrol_change channel=0 control=74 value=66 time=0\ncontrol_change channel=0 control=74 value=64 time=0\ncontrol_change channel=0 control=74 value=62 time=0\ncontrol_change channel=0 control=74 value=61 time=0\ncontrol_change channel=0 control=74 value=60 time=0\ncontrol_change channel=0 control=74 value=59 time=0\ncontrol_change channel=0 control=74 value=58 time=0\ncontrol_change channel=0 control=74 value=59 time=0\ncontrol_change channel=0 control=74 value=60 time=0\ncontrol_change channel=0 control=74 value=61 time=0\ncontrol_change channel=0 control=74 value=62 time=0\ncontrol_change channel=0 control=74 value=63 time=0\ncontrol_change channel=0 control=74 value=64 time=0\ncontrol_change channel=0 control=74 value=65 time=0\ncontrol_change channel=0 control=74 value=67 time=0\ncontrol_change channel=0 control=74 value=68 time=0\ncontrol_change channel=0 control=74 value=70 time=0\ncontrol_change channel=0 control=74 value=72 time=0\ncontrol_change channel=0 control=74 value=73 time=0\ncontrol_change channel=0 control=74 value=75 time=0\ncontrol_change channel=0 control=74 value=77 time=0\ncontrol_change channel=0 control=74 value=78 time=0\ncontrol_change channel=0 control=74 value=79 time=0\ncontrol_change channel=0 control=74 value=80 time=0\ncontrol_change channel=0 control=74 value=81 time=0\ncontrol_change channel=0 control=74 value=82 time=0\ncontrol_change channel=0 control=74 value=83 time=0\ncontrol_change channel=0 control=74 value=82 time=0\ncontrol_change channel=0 control=74 value=81 time=0\ncontrol_change channel=0 control=74 value=80 time=0\ncontrol_change channel=0 control=74 value=79 time=0\ncontrol_change channel=0 control=74 value=78 time=0\ncontrol_change channel=0 control=74 value=77 time=0\ncontrol_change channel=0 control=74 value=76 time=0\ncontrol_change channel=0 control=74 value=75 time=0\ncontrol_change channel=0 control=74 value=74 time=0\ncontrol_change channel=0 control=74 value=73 time=0\ncontrol_change channel=0 control=74 value=72 time=0\ncontrol_change channel=0 control=74 value=71 time=0\ncontrol_change channel=0 control=74 value=70 time=0\ncontrol_change channel=0 control=74 value=69 time=0\ncontrol_change channel=0 control=74 value=68 time=0\ncontrol_change channel=0 control=74 value=67 time=0\ncontrol_change channel=0 control=74 value=66 time=0\ncontrol_change channel=0 control=74 value=67 time=0\ncontrol_change channel=0 control=74 value=68 time=0\ncontrol_change channel=0 control=74 value=69 time=0\ncontrol_change channel=0 control=74 value=70 time=0\ncontrol_change channel=0 control=74 value=71 time=0\ncontrol_change channel=0 control=74 value=72 time=0\ncontrol_change channel=0 control=74 value=73 time=0\ncontrol_change channel=0 control=74 value=74 time=0\ncontrol_change channel=0 control=74 value=75 time=0\ncontrol_change channel=0 control=74 value=76 time=0\ncontrol_change channel=0 control=74 value=77 time=0\ncontrol_change channel=0 control=74 value=78 time=0\ncontrol_change channel=0 control=74 value=79 time=0\ncontrol_change channel=0 control=74 value=80 time=0\ncontrol_change channel=0 control=74 value=81 time=0\ncontrol_change channel=0 control=74 value=82 time=0\ncontrol_change channel=0 control=74 value=83 time=0\ncontrol_change channel=0 control=74 value=84 time=0\ncontrol_change channel=0 control=74 value=85 time=0\ncontrol_change channel=0 control=74 value=84 time=0\ncontrol_change channel=0 control=74 value=83 time=0\ncontrol_change channel=0 control=74 value=82 time=0\ncontrol_change channel=0 control=74 value=81 time=0\ncontrol_change channel=0 control=74 value=80 time=0\ncontrol_change channel=0 control=74 value=79 time=0\ncontrol_change channel=0 control=74 value=78 time=0\ncontrol_change channel=0 control=74 value=77 time=0\ncontrol_change channel=0 control=74 value=76 time=0\ncontrol_change channel=0 control=74 value=75 time=0\ncontrol_change channel=0 control=74 value=74 time=0\ncontrol_change channel=0 control=74 value=73 time=0\ncontrol_change channel=0 control=74 value=74 time=0\ncontrol_change channel=0 control=74 value=75 time=0\ncontrol_change channel=0 control=74 value=76 time=0\ncontrol_change channel=0 control=74 value=77 time=0\ncontrol_change channel=0 control=74 value=79 time=0\ncontrol_change channel=0 control=74 value=80 time=0\ncontrol_change channel=0 control=74 value=82 time=0\ncontrol_change channel=0 control=74 value=84 time=0\ncontrol_change channel=0 control=74 value=86 time=0\ncontrol_change channel=0 control=74 value=88 time=0\ncontrol_change channel=0 control=74 value=91 time=0\ncontrol_change channel=0 control=74 value=93 time=0\ncontrol_change channel=0 control=74 value=95 time=0\ncontrol_change channel=0 control=74 value=98 time=0\ncontrol_change channel=0 control=74 value=100 time=0\ncontrol_change channel=0 control=74 value=103 time=0\ncontrol_change channel=0 control=74 value=105 time=0\ncontrol_change channel=0 control=74 value=107 time=0\ncontrol_change channel=0 control=74 value=110 time=0\ncontrol_change channel=0 control=74 value=112 time=0\ncontrol_change channel=0 control=74 value=114 time=0\ncontrol_change channel=0 control=74 value=115 time=0\ncontrol_change channel=0 control=74 value=117 time=0\ncontrol_change channel=0 control=74 value=118 time=0\ncontrol_change channel=0 control=74 value=119 time=0\ncontrol_change channel=0 control=74 value=120 time=0\ncontrol_change channel=0 control=74 value=121 time=0\ncontrol_change channel=0 control=74 value=120 time=0\ncontrol_change channel=0 control=74 value=119 time=0\ncontrol_change channel=0 control=74 value=118 time=0\ncontrol_change channel=0 control=74 value=116 time=0\ncontrol_change channel=0 control=74 value=115 time=0\ncontrol_change channel=0 control=74 value=113 time=0\ncontrol_change channel=0 control=74 value=111 time=0\ncontrol_change channel=0 control=74 value=109 time=0\ncontrol_change channel=0 control=74 value=107 time=0\ncontrol_change channel=0 control=74 value=105 time=0\ncontrol_change channel=0 control=74 value=103 time=0\ncontrol_change channel=0 control=74 value=101 time=0\ncontrol_change channel=0 control=74 value=99 time=0\ncontrol_change channel=0 control=74 value=97 time=0\ncontrol_change channel=0 control=74 value=94 time=0\ncontrol_change channel=0 control=74 value=92 time=0\ncontrol_change channel=0 control=74 value=90 time=0\ncontrol_change channel=0 control=74 value=88 time=0\ncontrol_change channel=0 control=74 value=85 time=0\ncontrol_change channel=0 control=74 value=83 time=0\ncontrol_change channel=0 control=74 value=81 time=0\ncontrol_change channel=0 control=74 value=79 time=0\ncontrol_change channel=0 control=74 value=77 time=0\ncontrol_change channel=0 control=74 value=75 time=0\ncontrol_change channel=0 control=74 value=74 time=0\ncontrol_change channel=0 control=74 value=72 time=0\ncontrol_change channel=0 control=74 value=71 time=0\ncontrol_change channel=0 control=74 value=69 time=0\ncontrol_change channel=0 control=74 value=68 time=0\ncontrol_change channel=0 control=74 value=67 time=0\ncontrol_change channel=0 control=74 value=66 time=0\ncontrol_change channel=0 control=74 value=65 time=0\ncontrol_change channel=0 control=74 value=64 time=0\ncontrol_change channel=0 control=74 value=65 time=0\ncontrol_change channel=0 control=74 value=66 time=0\ncontrol_change channel=0 control=74 value=68 time=0\ncontrol_change channel=0 control=74 value=69 time=0\ncontrol_change channel=0 control=74 value=70 time=0\ncontrol_change channel=0 control=74 value=72 time=0\ncontrol_change channel=0 control=74 value=73 time=0\ncontrol_change channel=0 control=74 value=75 time=0\ncontrol_change channel=0 control=74 value=77 time=0\ncontrol_change channel=0 control=74 value=78 time=0\ncontrol_change channel=0 control=74 value=80 time=0\ncontrol_change channel=0 control=74 value=82 time=0\ncontrol_change channel=0 control=74 value=84 time=0\ncontrol_change channel=0 control=74 value=86 time=0\ncontrol_change channel=0 control=74 value=88 time=0\ncontrol_change channel=0 control=74 value=90 time=0\ncontrol_change channel=0 control=74 value=92 time=0\ncontrol_change channel=0 control=74 value=94 time=0\ncontrol_change channel=0 control=74 value=96 time=0\ncontrol_change channel=0 control=74 value=97 time=0\ncontrol_change channel=0 control=74 value=99 time=0\ncontrol_change channel=0 control=74 value=100 time=0\ncontrol_change channel=0 control=74 value=101 time=0\ncontrol_change channel=0 control=74 value=102 time=0\ncontrol_change channel=0 control=74 value=101 time=0\ncontrol_change channel=0 control=74 value=100 time=0\ncontrol_change channel=0 control=74 value=99 time=0\ncontrol_change channel=0 control=74 value=98 time=0\ncontrol_change channel=0 control=74 value=97 time=0\ncontrol_change channel=0 control=74 value=96 time=0\ncontrol_change channel=0 control=74 value=94 time=0\ncontrol_change channel=0 control=74 value=93 time=0\ncontrol_change channel=0 control=74 value=92 time=0\ncontrol_change channel=0 control=74 value=91 time=0\ncontrol_change channel=0 control=74 value=90 time=0\ncontrol_change channel=0 control=74 value=88 time=0\ncontrol_change channel=0 control=74 value=87 time=0\ncontrol_change channel=0 control=74 value=86 time=0\ncontrol_change channel=0 control=74 value=85 time=0\ncontrol_change channel=0 control=74 value=83 time=0\ncontrol_change channel=0 control=74 value=82 time=0\ncontrol_change channel=0 control=74 value=81 time=0\ncontrol_change channel=0 control=74 value=80 time=0\ncontrol_change channel=0 control=74 value=79 time=0\ncontrol_change channel=0 control=74 value=78 time=0\ncontrol_change channel=0 control=74 value=77 time=0\ncontrol_change channel=0 control=74 value=76 time=0\ncontrol_change channel=0 control=74 value=75 time=0\ncontrol_change channel=0 control=74 value=74 time=0\ncontrol_change channel=0 control=74 value=73 time=0\ncontrol_change channel=0 control=74 value=72 time=0\ncontrol_change channel=0 control=74 value=73 time=0\ncontrol_change channel=0 control=74 value=74 time=0\ncontrol_change channel=0 control=74 value=75 time=0\ncontrol_change channel=0 control=74 value=76 time=0\ncontrol_change channel=0 control=74 value=77 time=0\ncontrol_change channel=0 control=74 value=78 time=0\ncontrol_change channel=0 control=74 value=79 time=0\ncontrol_change channel=0 control=74 value=80 time=0\ncontrol_change channel=0 control=74 value=81 time=0\ncontrol_change channel=0 control=74 value=82 time=0\ncontrol_change channel=0 control=74 value=83 time=0\ncontrol_change channel=0 control=74 value=84 time=0\ncontrol_change channel=0 control=74 value=85 time=0\ncontrol_change channel=0 control=74 value=84 time=0\ncontrol_change channel=0 control=74 value=83 time=0\ncontrol_change channel=0 control=74 value=82 time=0\ncontrol_change channel=0 control=74 value=81 time=0\ncontrol_change channel=0 control=74 value=80 time=0\ncontrol_change channel=0 control=74 value=79 time=0\ncontrol_change channel=0 control=74 value=78 time=0\ncontrol_change channel=0 control=74 value=76 time=0\ncontrol_change channel=0 control=74 value=75 time=0\ncontrol_change channel=0 control=74 value=74 time=0\ncontrol_change channel=0 control=74 value=73 time=0\ncontrol_change channel=0 control=74 value=72 time=0\ncontrol_change channel=0 control=74 value=71 time=0\ncontrol_change channel=0 control=74 value=70 time=0\ncontrol_change channel=0 control=74 value=69 time=0\ncontrol_change channel=0 control=74 value=68 time=0\ncontrol_change channel=0 control=74 value=67 time=0\ncontrol_change channel=0 control=74 value=68 time=0\ncontrol_change channel=0 control=74 value=69 time=0\ncontrol_change channel=0 control=74 value=71 time=0\ncontrol_change channel=0 control=74 value=72 time=0\ncontrol_change channel=0 control=74 value=73 time=0\ncontrol_change channel=0 control=74 value=75 time=0\ncontrol_change channel=0 control=74 value=76 time=0\ncontrol_change channel=0 control=74 value=77 time=0\ncontrol_change channel=0 control=74 value=79 time=0\ncontrol_change channel=0 control=74 value=80 time=0\ncontrol_change channel=0 control=74 value=81 time=0\ncontrol_change channel=0 control=74 value=82 time=0\ncontrol_change channel=0 control=74 value=83 time=0\ncontrol_change channel=0 control=74 value=84 time=0\ncontrol_change channel=0 control=74 value=85 time=0\ncontrol_change channel=0 control=74 value=84 time=0\ncontrol_change channel=0 control=74 value=83 time=0\ncontrol_change channel=0 control=74 value=82 time=0\ncontrol_change channel=0 control=74 value=81 time=0\ncontrol_change channel=0 control=74 value=80 time=0\ncontrol_change channel=0 control=74 value=79 time=0\ncontrol_change channel=0 control=74 value=78 time=0\ncontrol_change channel=0 control=74 value=77 time=0\ncontrol_change channel=0 control=74 value=76 time=0\ncontrol_change channel=0 control=74 value=75 time=0\ncontrol_change channel=0 control=74 value=74 time=0\ncontrol_change channel=0 control=74 value=73 time=0\ncontrol_change channel=0 control=74 value=72 time=0\ncontrol_change channel=0 control=74 value=71 time=0\ncontrol_change channel=0 control=74 value=72 time=0\ncontrol_change channel=0 control=74 value=73 time=0\ncontrol_change channel=0 control=74 value=74 time=0\ncontrol_change channel=0 control=74 value=75 time=0\ncontrol_change channel=0 control=74 value=76 time=0\ncontrol_change channel=0 control=74 value=77 time=0\ncontrol_change channel=0 control=74 value=78 time=0\ncontrol_change channel=0 control=74 value=79 time=0\ncontrol_change channel=0 control=74 value=80 time=0\ncontrol_change channel=0 control=74 value=79 time=0\ncontrol_change channel=0 control=74 value=78 time=0\ncontrol_change channel=0 control=74 value=77 time=0\ncontrol_change channel=0 control=74 value=76 time=0\ncontrol_change channel=0 control=74 value=75 time=0\ncontrol_change channel=0 control=74 value=74 time=0\ncontrol_change channel=0 control=74 value=73 time=0\ncontrol_change channel=0 control=74 value=72 time=0\ncontrol_change channel=0 control=74 value=71 time=0\ncontrol_change channel=0 control=74 value=70 time=0\n